<svg xmlns="http://www.w3.org/2000/svg" xmlns:xlink="http://www.w3.org/1999/xlink" width="55" height="53.5" viewBox="0 0 55 53.5">
  <defs>
    <clipPath id="clip-path">
      <path id="Rectangle_5" data-name="Rectangle 5" d="M3.75,0h37.5A3.75,3.75,0,0,1,45,3.75v37.5A3.75,3.75,0,0,1,41.25,45H3.75A3.75,3.75,0,0,1,0,41.25V3.75A3.75,3.75,0,0,1,3.75,0Z" transform="translate(0 0)" fill="#0ec4be"/>
    </clipPath>
  </defs>
  <g id="ic_github" transform="translate(-60 -1119)">
    <rect id="Rectangle_1567" data-name="Rectangle 1567" width="30" height="30" rx="4" transform="translate(60 1119)" fill="#0ec4be"/>
    <rect id="Rectangle_1568" data-name="Rectangle 1568" width="19" height="6" rx="3" transform="translate(93 1119)" fill="#253154"/>
    <rect id="Rectangle_1569" data-name="Rectangle 1569" width="19" height="6" rx="3" transform="translate(67.5 1151.5) rotate(90)" fill="#d3d5dd"/>
    <g id="github_square_black" data-name="github/square/black" transform="translate(70 1127.5)">
      <g id="Github">
        <path id="Rectangle_5-2" data-name="Rectangle 5" d="M3.75,0h37.5A3.75,3.75,0,0,1,45,3.75v37.5A3.75,3.75,0,0,1,41.25,45H3.75A3.75,3.75,0,0,1,0,41.25V3.75A3.75,3.75,0,0,1,3.75,0Z" transform="translate(0 0)" fill="#253154"/>
        <g id="Github-2" data-name="Github" clip-path="url(#clip-path)">
          <path id="Combined_Shape" data-name="Combined Shape" d="M2.33,21.089l20.553,20.75L45.6,24.128,21.861.9S7.926-.339,6.08.276C4.2.9,3.892,1.214.455,5.9-.723,7.508,2.33,21.089,2.33,21.089Z" transform="translate(10.483 11.911)" fill="#0ec4be" opacity="0.1"/>
          <path id="Combined_Shape-2" data-name="Combined Shape" d="M18.245,27.433h0c-.646,0-.735-.528-.735-1.1V23.267a9.673,9.673,0,0,0-.192-1.981,2.5,2.5,0,0,0-.767-1.087h0a8.732,8.732,0,0,0,3.257-.766c1.874-.865,3.015-2.868,3.132-5.5a6.456,6.456,0,0,0-.639-3.22,4.12,4.12,0,0,0-.735-1.063,9.765,9.765,0,0,0,.224-1.918,5.277,5.277,0,0,0-.447-1.918,6.2,6.2,0,0,0-1.726.319A16.671,16.671,0,0,0,17.51,7.287,9.441,9.441,0,0,0,16.1,6.967a16.9,16.9,0,0,0-2.041-.128h-.068a17.08,17.08,0,0,0-2.041.128,9.5,9.5,0,0,0-1.406.319A16.672,16.672,0,0,0,8.438,6.136a6.157,6.157,0,0,0-1.726-.319,5.324,5.324,0,0,0-.447,1.918,9.761,9.761,0,0,0,.224,1.918,4.093,4.093,0,0,0-.735,1.063,6.456,6.456,0,0,0-.639,3.22c.117,2.629,1.258,4.633,3.132,5.5a8.739,8.739,0,0,0,3.26.767,2.483,2.483,0,0,0-.767,1.087c-.19.632-.065.829-.064.831h0a4.711,4.711,0,0,1-1.72.4,2.451,2.451,0,0,1-.323-.021c-.952-.127-1.4-.367-2.141-1.534a2.711,2.711,0,0,0-2.4-1.406c-.217,0-.345.042-.378.124-.061.148.188.392.336.537l.042.042a1.459,1.459,0,0,0,.237.165,2.539,2.539,0,0,1,1.106,1.178l.045.1v0a3.447,3.447,0,0,0,2.093,2.322,4.871,4.871,0,0,0,1.355.17,8.14,8.14,0,0,0,1.62-.17v2.3c0,.57-.089,1.1-.735,1.1a1.347,1.347,0,0,1-.142-.008A14.07,14.07,0,0,1,8.589,1.105,14.062,14.062,0,0,1,25.412,22.368a14.094,14.094,0,0,1-6.9,5.041A1.511,1.511,0,0,1,18.245,27.433Z" transform="translate(8.438 8.75)" fill="#fff"/>
        </g>
      </g>
    </g>
  </g>
</svg>
