<svg xmlns="http://www.w3.org/2000/svg" width="69.762" height="66.365" viewBox="0 0 69.762 66.365">
  <g id="ic_no_signup" transform="translate(-50.855 -1108.832)">
    <path id="Intersection_6" data-name="Intersection 6" d="M-19148.687-5325.529a34.824,34.824,0,0,1,28.309-14.411,34.478,34.478,0,0,1,34.717,34.241,33.93,33.93,0,0,1-10.867,24.884Z" transform="translate(-19536.113 -1798.982) rotate(173)" fill="rgba(37,49,84,0.2)"/>
    <g id="person" transform="translate(-236 705)">
      <circle id="Ellipse_39" data-name="Ellipse 39" cx="9" cy="9" r="9" transform="translate(313 412)" fill="#253154"/>
      <path id="Path_120" data-name="Path 120" d="M304,428.164v6.923h35.412v-6.923s-3.163-6.109-17.466-6.38S304,428.164,304,428.164Z" transform="translate(0 12.58)" fill="#253154"/>
    </g>
    <g id="Group_469" data-name="Group 469" transform="translate(2 21)">
      <circle id="Ellipse_148" data-name="Ellipse 148" cx="11" cy="11" r="11" transform="translate(89 1114)" fill="#0ec4be"/>
      <rect id="Rectangle_1563" data-name="Rectangle 1563" width="12" height="3" transform="translate(94 1124)" fill="#fff"/>
    </g>
  </g>
</svg>
