<svg xmlns="http://www.w3.org/2000/svg" width="80" height="68.427" viewBox="0 0 80 68.427">
  <g id="ic_videos" transform="translate(-83 27)">
    <path id="Path_477" data-name="Path 477" d="M31.351,8.6a6,6,0,0,1,10.3,0L67.566,51.919A6,6,0,0,1,62.418,61H10.582a6,6,0,0,1-5.149-9.081Z" transform="translate(144 -27) rotate(90)" fill="rgba(37,49,84,0.2)"/>
    <path id="Polygon_2225" data-name="Polygon 2225" d="M8.729,3.373a2,2,0,0,1,3.542,0l7.191,13.7A2,2,0,0,1,17.691,20H3.309a2,2,0,0,1-1.771-2.93Z" transform="translate(137 -27) rotate(90)" fill="#253154"/>
    <path id="ic_ondemand_video_24px" d="M42.8,3H5.18A4.3,4.3,0,0,0,1,7.444V34.111a4.317,4.317,0,0,0,4.18,4.444H15.629V43H32.348V38.556H42.8a4.314,4.314,0,0,0,4.159-4.444l.021-26.667A4.317,4.317,0,0,0,42.8,3Zm0,31.111H5.18V7.444H42.8ZM32.348,20.778,17.719,29.667V11.889Z" transform="translate(90 -3)" fill="#253154"/>
    <circle id="Ellipse_141" data-name="Ellipse 141" cx="12" cy="12" r="12" transform="translate(139 14)" fill="#5f72f2"/>
  </g>
</svg>
