<svg xmlns="http://www.w3.org/2000/svg" xmlns:xlink="http://www.w3.org/1999/xlink" width="89" height="67" viewBox="0 0 89 67">
  <defs>
    <clipPath id="clip-path">
      <rect width="75" height="38" fill="none"/>
    </clipPath>
  </defs>
  <g id="ic_zero_cost" transform="translate(-1060 -1586)">
    <circle id="Ellipse_145" data-name="Ellipse 145" cx="31.5" cy="31.5" r="31.5" transform="translate(1063 1586)" fill="#c8cad2"/>
    <circle id="Ellipse_146" data-name="Ellipse 146" cx="11.5" cy="11.5" r="11.5" transform="translate(1126 1630)" fill="#253154"/>
    <g id="Rectangle_1562" data-name="Rectangle 1562" transform="translate(1060 1602)" fill="#253154" stroke="#fff" stroke-width="4">
      <rect width="76" height="37" stroke="none"/>
      <rect x="2" y="2" width="72" height="33" fill="none"/>
    </g>
    <text id="_" data-name="$" transform="translate(1094 1626)" fill="#fff" font-size="16" font-family="Roboto-Bold, Roboto" font-weight="700"><tspan x="0" y="0">$</tspan></text>
    <g id="Repeat_Grid_38" data-name="Repeat Grid 38" transform="translate(1061 1602)" clip-path="url(#clip-path)">
      <g transform="translate(-1061 -1602)">
        <g id="Ellipse_144" data-name="Ellipse 144" transform="translate(1061 1602)" fill="#fff" stroke="#fff" stroke-width="1">
          <circle cx="6.5" cy="6.5" r="6.5" stroke="none"/>
          <circle cx="6.5" cy="6.5" r="6" fill="none"/>
        </g>
      </g>
      <g transform="translate(-1000 -1602)">
        <g id="Ellipse_144-2" data-name="Ellipse 144" transform="translate(1061 1602)" fill="#fff" stroke="#fff" stroke-width="1">
          <circle cx="6.5" cy="6.5" r="6.5" stroke="none"/>
          <circle cx="6.5" cy="6.5" r="6" fill="none"/>
        </g>
      </g>
      <g transform="translate(-1061 -1578)">
        <g id="Ellipse_144-3" data-name="Ellipse 144" transform="translate(1061 1602)" fill="#fff" stroke="#fff" stroke-width="1">
          <circle cx="6.5" cy="6.5" r="6.5" stroke="none"/>
          <circle cx="6.5" cy="6.5" r="6" fill="none"/>
        </g>
      </g>
      <g transform="translate(-1000 -1578)">
        <g id="Ellipse_144-4" data-name="Ellipse 144" transform="translate(1061 1602)" fill="#fff" stroke="#fff" stroke-width="1">
          <circle cx="6.5" cy="6.5" r="6.5" stroke="none"/>
          <circle cx="6.5" cy="6.5" r="6" fill="none"/>
        </g>
      </g>
    </g>
    <g id="Group_466" data-name="Group 466" transform="translate(145 -5)">
      <g id="Ellipse_143" data-name="Ellipse 143" transform="translate(935 1607)" fill="none" stroke="#5f72f2" stroke-width="4">
        <circle cx="18" cy="18" r="18" stroke="none"/>
        <circle cx="18" cy="18" r="16" fill="none"/>
      </g>
      <line id="Line_102" data-name="Line 102" x1="19" y2="22" transform="translate(943.5 1614.5)" fill="none" stroke="#5f72f2" stroke-linecap="round" stroke-width="4"/>
    </g>
    <circle id="Ellipse_147" data-name="Ellipse 147" cx="6" cy="6" r="6" transform="translate(1126 1596)" fill="#5f72f2"/>
  </g>
</svg>
